<?xml version="1.0" encoding="utf-8"?>
<!-- Generator: Adobe Illustrator 23.0.0, SVG Export Plug-In . SVG Version: 6.00 Build 0)  -->
<svg version="1.1" id="Layer_1" xmlns="http://www.w3.org/2000/svg" xmlns:xlink="http://www.w3.org/1999/xlink" x="0px" y="0px"
	 viewBox="0 0 669.6 197.1" style="enable-background:new 0 0 669.6 197.1;" xml:space="preserve">
<style type="text/css">
	.st0{fill:#f0b558;}
	.st1{fill:#445140;}
	.st2{fill:#FFFFFF;}
</style>
<g>
	<path class="st0" d="M147.1,194.8c-4.2-5.1-6.2-11.4-7.1-17.9c-2.6-18.4,0.6-35.2,14.6-48.6c4.9-4.7,10.6-7.9,17-10.2
		c16.8-5.9,32.4-13.9,45.1-26.7c0.3-0.3,0.8-0.4,1.6-0.8c3.5,8.8-1.3,15.8-4.9,23.5c7.6,0.3,13.2-3,18.1-7.6
		c8.9-8.3,14.1-19.2,20.4-29.4c2.8-4.5,5.5-9.1,9.9-12.4c1.2-0.9,2.7-2.1,4-1.1c1.2,0.9,0.2,2.5,0,3.8c-3.3,18.2-8.9,35.5-20.2,50.4
		c-7.3,9.7-16.6,16.6-28.3,20.3c-10,3.2-19.8,6.7-29.7,10.1c-9.1,3.2-19.7,8.2-27.9,18.8c-8.1,10.5-11.8,24.4-12.1,25.9
		C147.4,193.7,147.2,194.3,147.1,194.8z"/>
	<path class="st0" d="M56.5,113.8c-3.8-7.6-8.3-14.5-4.9-23.4C56,94.1,60,97.8,64.4,101c10.3,7.5,21.7,12.9,33.7,17.1
		c19.2,6.8,31.4,23.4,32.4,43.7c0.5,9.2-0.2,18.3-4.1,26.9c-1,2.2-1.9,4.6-4.3,6.6c-0.8-2.9-1.5-5.6-2.1-8.2
		c-4.6-18-16.1-29.8-32.9-36.9c-10.1-4.3-20.5-8-31-10.9c-19.3-5.3-31.8-18-40.4-35.3C9.7,92.1,6,79.5,3.8,66.5
		c-0.2-1.1-0.9-2.4,0.4-3.1c1.2-0.6,2.3,0.3,3.2,0.9c4.5,3.1,7.3,7.7,10.1,12.2c5.2,8.3,9.7,17.1,15.9,24.7
		c4.5,5.5,9.6,10.2,16.6,12.2C52.1,114,54,114.2,56.5,113.8z"/>
	<path class="st2" d="M195.3,46c-5.4,17.3-0.6,30.2,15.7,38.7c-21.9-3.8-43.2-0.7-64.5,4.3C164.9,77.1,182.2,64.2,195.3,46z"/>
	<path class="st2" d="M86,32.9c16.8,4.7,29.8,0.4,38.2-15.7c-3.5,22.2-0.5,43.8,5,65.3C117.3,63.9,104.4,46.3,86,32.9z"/>
	<path class="st2" d="M181,33.2c-8.9,6.8-16.7,14.3-23.6,22.6c-6.9,8.3-12.9,17.3-18.6,26.6c4.8-21.5,7.9-43.1,4.4-65.6
		C151.6,32.1,163.8,38.4,181,33.2z"/>
	<path class="st2" d="M72.6,46.2c13.2,18.6,30.8,31.8,50,43.1c-10.7-2.4-21.4-4.4-32.2-5.5c-10.8-1.1-21.7-0.9-32.8,0.3
		C72.9,75.4,77.8,62.9,72.6,46.2z"/>
	<path class="st2" d="M166.3,25.2c-6.1-0.1-11-5-10.9-11.1c0.1-6.1,5-11,11.2-10.9c6.1,0.1,11,5,10.9,11.2
		C177.4,20.4,172.4,25.2,166.3,25.2z"/>
	<path class="st2" d="M224.4,60.9c-0.1,6.1-5.3,11-11.3,10.9c-6-0.2-10.9-5.3-10.8-11.4c0.1-6.1,5.2-10.9,11.3-10.8
		C219.8,49.8,224.5,54.8,224.4,60.9z"/>
	<path class="st2" d="M100,25.5c-6.1-0.1-10.9-5.1-10.8-11.3c0.1-6,5.3-11,11.3-10.9c6,0.2,10.9,5.3,10.8,11.4
		C111.2,20.9,106.2,25.6,100,25.5z"/>
	<path class="st2" d="M64.8,61.5c0,6.1-4.9,11.1-10.9,11.2c-6,0-11.1-5.1-11.2-11.1c0-5.9,5.1-11.1,11.1-11.2
		C59.8,50.4,64.8,55.4,64.8,61.5z"/>
	<g>
		<path class="st2" d="M314.8,110.3H327v13.6c-1,1-2.5,1.9-4.4,2.6c-2,0.7-4.5,1.1-7.7,1.1c-4.5,0-8.1-1.7-10.8-5.2s-4-8-4-13.7
			V93.2c0-5.5,1.3-10,3.9-13.5c2.6-3.5,6-5.2,10.2-5.2c4,0,7,1.1,9.1,3.4c2.1,2.3,3.2,5.4,3.5,9.3h13l0.1-0.3
			c-0.1-7.1-2.4-12.9-6.8-17.3c-4.4-4.4-10.9-6.6-19.2-6.6c-8.1,0-14.6,2.8-19.7,8.4c-5.1,5.6-7.7,12.9-7.7,21.8v15.4
			c0,9,2.7,16.2,8,21.9c5.3,5.6,12.2,8.4,20.6,8.4c6.6,0,12.1-1.1,16.4-3.4c4.3-2.3,7.5-4.8,9.6-7.8V100h-25.9V110.3z"/>
		<path class="st2" d="M376.1,82.1c-2.5,0-4.7,0.8-6.6,2.4c-1.9,1.6-3.5,3.8-4.6,6.7l-0.6-8.1h-12.8V138h13.7v-37.1
			c0.7-1.7,1.7-2.9,3-3.9c1.3-0.9,3-1.4,5-1.4l5,0.2l1.5-13.1c-0.6-0.2-1.2-0.3-1.8-0.4C377.4,82.2,376.8,82.1,376.1,82.1z"/>
		<path class="st2" d="M426.8,124v-22.7c0-6.2-1.9-10.9-5.7-14.2s-8.8-5-14.9-5c-6.4,0-11.7,1.7-15.6,5c-4,3.4-5.8,7.4-5.6,12l0,0.3
			l13.3,0.1c0-2.1,0.6-3.7,1.8-4.8c1.2-1.2,2.9-1.7,5.2-1.7c2.5,0,4.4,0.7,5.7,2.2c1.3,1.5,1.9,3.5,1.9,6.1v4.4h-7.7
			c-7.4,0-13,1.5-16.9,4.4c-3.9,3-5.8,7.1-5.8,12.5c0,5.1,1.4,9.1,4.3,12.1s7,4.4,12.4,4.4c3.2,0,6-0.9,8.3-2.6
			c2.3-1.8,4.2-4,5.6-6.6c0.2,1.5,0.4,2.9,0.8,4.3c0.4,1.4,0.8,2.7,1.3,4H429c-0.8-2.2-1.4-4.5-1.7-6.7
			C427,129,426.8,126.5,426.8,124z M412.9,121.7c-0.7,1.7-1.9,3.2-3.8,4.5s-4,1.9-6.5,1.9c-2,0-3.5-0.6-4.6-1.7s-1.7-2.6-1.7-4.4
			c0-2.2,0.8-4.1,2.3-5.7c1.5-1.6,3.7-2.4,6.7-2.4h7.7V121.7z"/>
		<path class="st2" d="M450.8,98.1c1.5-3,4.1-4.6,7.7-4.6c2.5,0,4.5,0.9,6,2.8c1.4,1.9,2.2,4.2,2.2,7.1h12.5l0.1-0.3
			c0.1-6.3-1.7-11.4-5.6-15.2c-3.9-3.9-8.9-5.8-15.2-5.8c-7.6,0-13.5,2.6-17.6,7.8c-4.1,5.2-6.2,11.8-6.2,19.9v1.5
			c0,8.1,2.1,14.8,6.2,19.9c4.1,5.2,10,7.8,17.6,7.8c5.9,0,10.9-1.9,14.9-5.6c4-3.7,6-8.4,5.8-13.9l-0.1-0.3h-12.5
			c0,2.6-0.7,4.6-2.2,6.1c-1.5,1.5-3.4,2.3-5.9,2.3c-3.7,0-6.3-1.5-7.8-4.5c-1.5-3-2.2-6.9-2.2-11.8v-1.5
			C448.6,105,449.4,101.1,450.8,98.1z"/>
		<rect x="487.9" y="58.9" class="st2" width="13.8" height="11.1"/>
		<rect x="487.9" y="83.1" class="st2" width="13.8" height="54.9"/>
		<path class="st2" d="M534.9,82.1c-7.5,0-13.4,2.6-17.6,7.8c-4.2,5.2-6.4,11.9-6.4,20.1v1.1c0,8.2,2.1,15,6.4,20.2
			c4.3,5.2,10.2,7.8,17.7,7.8c7.5,0,13.4-2.6,17.7-7.8c4.3-5.2,6.4-11.9,6.4-20.2V110c0-8.2-2.1-14.9-6.4-20.1
			C548.3,84.7,542.4,82.1,534.9,82.1z M545.3,111.1c0,5-0.8,9-2.5,12c-1.7,3-4.3,4.6-7.8,4.6c-3.6,0-6.3-1.5-7.9-4.5
			c-1.6-3-2.5-7-2.5-12V110c0-4.8,0.8-8.8,2.5-11.9c1.7-3.1,4.3-4.6,7.8-4.6c3.6,0,6.2,1.5,7.9,4.6c1.7,3.1,2.5,7,2.5,11.9V111.1z"
			/>
		<path class="st2" d="M597.9,123.1c-1,1.5-2.3,2.6-3.9,3.4c-1.6,0.8-3.5,1.1-5.7,1.1c-2.5,0-4.3-0.9-5.6-2.6s-1.9-4.6-1.9-8.6V83.1
			h-13.7v33.1c0,7.8,1.5,13.6,4.6,17.3c3,3.7,7.2,5.6,12.6,5.6c3.1,0,5.9-0.8,8.3-2.3c2.4-1.6,4.4-3.8,6-6.6l1.2,7.9h11.7V83.1
			h-13.8V123.1z"/>
		<path class="st2" d="M658.4,111.4c-3-2.6-7.7-4.6-14-6c-4.1-0.8-6.8-1.8-8.1-2.9c-1.3-1.1-2-2.5-2-4.2c0-1.8,0.6-3.2,1.9-4.4
			c1.3-1.2,3-1.7,5.3-1.7c2.5,0,4.4,0.7,5.7,2.1c1.3,1.4,2,3.2,2,5.4h13.3l0.1-0.3c0.2-5-1.7-9.1-5.5-12.4c-3.9-3.3-9-4.9-15.5-4.9
			c-6.2,0-11.1,1.6-14.8,4.9c-3.7,3.3-5.5,7.3-5.5,12c0,4.5,1.5,8,4.6,10.6c3.1,2.6,7.6,4.5,13.7,5.9c4,0.9,6.7,2,8.1,3.1
			c1.5,1.2,2.2,2.6,2.2,4.2c0,1.9-0.7,3.3-2,4.4c-1.3,1.1-3.3,1.6-5.8,1.6c-2.7,0-5-0.7-6.7-2c-1.7-1.3-2.6-3.4-2.7-6.4h-12.6
			l-0.1,0.3c-0.2,4.7,1.7,8.9,5.6,12.6c3.9,3.7,9.3,5.6,16.1,5.6c6.4,0,11.6-1.6,15.6-4.7c3.9-3.1,5.9-7.2,5.9-12.1
			C663,117.6,661.5,114,658.4,111.4z"/>
	</g>
</g>
</svg>
